<svg width="154" height="49" viewBox="0 0 154 49" fill="none" xmlns="http://www.w3.org/2000/svg">
<path d="M0 0H33.3657V16.3333H16.6828L0 0ZM0 16.3333H16.6828L33.3657 32.6667H0V16.3333ZM0 32.6667H16.6828V49L0 32.6667Z" fill="white" fill-opacity="0.4"/>
<path d="M52.1917 12.8854H65.6787V17.0814H57.2965V22.9124H65.6787V27.0158H57.2965V34.4818H52.1917V12.8854ZM68.4517 19.6109H73.2733V22.7271C73.5252 21.6563 74.0404 20.8342 74.8174 20.2588C75.6143 19.6618 76.4989 19.3643 77.4644 19.3643C77.9689 19.3643 78.3895 19.4062 78.7246 19.4876V23.8689C78.2437 23.8122 77.7598 23.7815 77.2751 23.7763C75.9516 23.7763 74.9548 24.197 74.2816 25.0407C73.6107 25.8634 73.2733 27.0972 73.2733 28.7435V34.4818H68.454V19.6109H68.4517ZM86.3359 34.8831C84.8659 34.8831 83.5836 34.5431 82.4913 33.8646C81.4197 33.1861 80.5679 32.2228 80.0336 31.0877C79.4665 29.8958 79.181 28.5469 79.181 27.0464C79.181 25.5653 79.4772 24.2276 80.0649 23.0357C80.616 21.8842 81.4907 20.9105 82.586 20.2282C83.6981 19.5497 84.9697 19.2097 86.3993 19.2097C87.4702 19.2097 88.4273 19.4368 89.2669 19.8889C90.1065 20.3425 90.737 20.9598 91.1575 21.7399V19.6109H95.9471V34.4818H91.1575V32.3835C90.737 33.124 90.0859 33.7301 89.2036 34.2039C88.3212 34.6619 87.3351 34.8951 86.3359 34.8831ZM87.7228 30.9644C88.8776 30.9644 89.7707 30.5945 90.4011 29.8539C91.0316 29.1134 91.3468 28.177 91.3468 27.0464C91.3468 25.9359 91.0316 25.0101 90.4011 24.2695C89.7707 23.5289 88.8776 23.159 87.7228 23.159C86.629 23.159 85.7482 23.5185 85.0758 24.2389C84.4247 24.9592 84.0988 25.8941 84.0988 27.0464C84.0988 28.1987 84.4247 29.144 85.0758 29.8846C85.7482 30.6049 86.6306 30.9644 87.7228 30.9644ZM99.3192 19.6109H104.141V21.7706C104.478 21.0084 105.023 20.3911 105.779 19.9196C106.557 19.448 107.46 19.2097 108.489 19.2097C110.884 19.2097 112.471 20.1243 113.247 21.9559C113.675 21.1257 114.343 20.4389 115.17 19.9816C116.054 19.4607 117.069 19.194 118.1 19.2097C121.693 19.2097 123.489 21.2243 123.489 25.2567V34.4818H118.636V26.1205C118.636 25.1139 118.447 24.3734 118.069 23.8996C117.69 23.4273 117.123 23.1897 116.367 23.1897C115.548 23.1897 114.917 23.4677 114.476 24.0229C114.035 24.5579 113.814 25.4928 113.814 26.8304V34.4818H108.962V26.0899C108.962 25.0825 108.773 24.3517 108.394 23.8996C108.039 23.4273 107.481 23.1897 106.726 23.1897C105.885 23.1897 105.244 23.4677 104.803 24.0229C104.361 24.5579 104.141 25.4928 104.141 26.8304V34.4818H99.3207V19.6109H99.3192ZM141.601 26.2752C141.601 26.9119 141.559 27.6016 141.473 28.3422H130.257C130.3 29.3092 130.635 30.0482 131.265 30.5638C131.896 31.0772 132.748 31.335 133.818 31.335C135.31 31.335 136.255 30.8919 136.654 30.0079H141.381C141.149 31.4688 140.33 32.6503 138.922 33.556C137.536 34.44 135.834 34.8831 133.818 34.8831C131.213 34.8831 129.165 34.1934 127.672 32.8154C126.202 31.4367 125.467 29.5147 125.467 27.0464C125.467 25.442 125.802 24.0535 126.475 22.881C127.124 21.7101 128.126 20.7625 129.342 20.1662C130.583 19.5295 132.022 19.2097 133.662 19.2097C135.215 19.2097 136.591 19.5078 137.788 20.1049C139.006 20.702 139.942 21.5344 140.592 22.6038C141.266 23.6747 141.601 24.898 141.601 26.2752ZM136.841 25.4113C136.82 24.4242 136.537 23.6724 135.99 23.159C135.445 22.6457 134.656 22.3878 133.627 22.3878C132.598 22.3878 131.779 22.6651 131.169 23.2211C130.581 23.7561 130.277 24.4855 130.255 25.4113H136.841ZM143.727 19.6109H148.549V22.7271C148.801 21.6563 149.316 20.8342 150.093 20.2588C150.847 19.6775 151.78 19.3621 152.74 19.3643C153.244 19.3643 153.665 19.4062 154 19.4876V23.8689C153.519 23.8122 153.035 23.7815 152.551 23.7763C151.227 23.7763 150.23 24.197 149.557 25.0407C148.884 25.8634 148.549 27.0972 148.549 28.7435V34.4818H143.727V19.6109Z" fill="white" fill-opacity="0.4"/>
</svg>
